<svg width="32" height="32" viewBox="0 0 32 32" fill="none" xmlns="http://www.w3.org/2000/svg"
    class="h-full w-full">
    <path
        d="M16.9986 7L14.9987 7L14.9987 13.6676C14.5899 13.8118 14.2038 14.0374 13.8773 14.3639C12.7076 15.5336 12.7076 17.4368 13.8773 18.6065C15.0471 19.7763 16.9502 19.7763 18.12 18.6065C19.2897 17.4368 19.2897 15.5336 18.12 14.3639C17.7935 14.0374 17.4074 13.8118 16.9986 13.6676L16.9986 7ZM16.7058 17.1923C16.3159 17.5821 15.6814 17.5821 15.2915 17.1923C14.9017 16.8025 14.9017 16.1679 15.2915 15.7781C15.6814 15.3883 16.3159 15.3883 16.7058 15.7781C17.0956 16.1679 17.0956 16.8025 16.7058 17.1923Z"
        fill="#EE8132"></path>
    <path
        d="M4 16.0586C4 19.3925 5.34 22.405 7.51 24.5841L6.1 26C3.57 23.4594 2 19.9448 2 16.0586C2 8.29623 8.27 2 16 2C23.73 2 30 8.23766 30 16C30 19.8862 28.94 23.4594 26.41 26L25 24.5841C27.17 22.405 28 19.3339 28 16C27.99 9.3523 22.62 4.00837 16 4.00837C9.37 4.00837 4 9.40084 4 16.0586Z"
        fill="#EE8132"></path>
    <path
        d="M13.332 8.4585C13.1998 8.50527 13.0684 8.55508 12.9385 8.60889C11.9679 9.01092 11.0856 9.60042 10.3428 10.3433C9.60018 11.0859 9.01135 11.9677 8.60938 12.938C8.20737 13.9085 8.00004 14.949 8 15.9995H6C6.00004 14.6866 6.25836 13.3864 6.76074 12.1733C7.26323 10.9602 8.00029 9.85771 8.92871 8.9292C9.85721 8.0007 10.9597 7.26377 12.1729 6.76123C12.5512 6.60451 12.939 6.47355 13.332 6.36475V8.4585Z"
        fill="#EE8132"></path>
    <path
        d="M18.668 6.36475C19.061 6.47355 19.4488 6.60451 19.8271 6.76123C21.0403 7.26377 22.1428 8.0007 23.0713 8.9292C23.9997 9.85771 24.7368 10.9602 25.2393 12.1733C25.7416 13.3864 26 14.6866 26 15.9995H24C24 14.949 23.7926 13.9085 23.3906 12.938C22.9887 11.9677 22.3998 11.0859 21.6572 10.3433C20.9144 9.60042 20.0321 9.01092 19.0615 8.60889C18.9316 8.55508 18.8002 8.50527 18.668 8.4585V6.36475Z"
        fill="#EE8132"></path>
</svg>
