<svg width="32" height="32" viewBox="0 0 32 32" fill="none" xmlns="http://www.w3.org/2000/svg"
    class="h-full w-full">
    <path
        d="M8.5859 10L10 8.58594L14.7147 13.3006C15.1058 13.1135 15.5383 13 16 13C17.6543 13 19 14.3457 19 16C19 17.6543 17.6543 19 16 19C14.3457 19 13 17.6543 13 16C13 15.5383 13.1135 15.1058 13.3006 14.7147L8.5859 10ZM16 17C16.5513 17 17 16.5513 17 16C17 15.4487 16.5513 15 16 15C15.4487 15 15 15.4487 15 16C15 16.5513 15.4487 17 16 17Z"
        fill="#EE8132"></path>
    <path
        d="M5.99995 16C5.99995 14.334 6.41525 12.7646 7.13915 11.3818L8.63525 12.8779C8.22655 13.8374 7.99995 14.8925 7.99995 16H5.99995Z"
        fill="#EE8132"></path>
    <path
        d="M16 8C14.8928 8 13.8376 8.2266 12.8777 8.6353L11.3816 7.1392C12.7647 6.4151 14.3337 6 16 6C21.5142 6 26 10.4863 26 16H24C24 11.5889 20.4111 8 16 8Z"
        fill="#EE8132"></path>
    <path
        d="M28 16.0586C28 19.3925 26.66 22.405 24.49 24.5841L25.9 26C28.43 23.4594 30 19.9448 30 16.0586C30 8.29623 23.73 2 16 2C8.27 2 2 8.23766 2 16C2 19.8862 3.06 23.4594 5.59 26L7 24.5841C4.83 22.405 4 19.3339 4 16C4.01 9.3523 9.38 4.00837 16 4.00837C22.63 4.00837 28 9.40084 28 16.0586Z"
        fill="#EE8132"></path>
</svg>
