<svg width="32" height="32" viewBox="0 0 32 32" fill="none" xmlns="http://www.w3.org/2000/svg"
    class="h-full w-full">
    <path
        d="M23.4141 10L22 8.58594L17.2853 13.3006C16.8942 13.1135 16.4617 13 16 13C14.3457 13 13 14.3457 13 16C13 17.6543 14.3457 19 16 19C17.6543 19 19 17.6543 19 16C19 15.5383 18.8865 15.1058 18.6994 14.7147L23.4141 10ZM16 17C15.4487 17 15 16.5513 15 16C15 15.4487 15.4487 15 16 15C16.5513 15 17 15.4487 17 16C17 16.5513 16.5513 17 16 17Z"
        fill="#EE8132"></path>
    <path
        d="M26 16C26 14.334 25.5847 12.7646 24.8608 11.3818L23.3647 12.8779C23.7734 13.8374 24 14.8925 24 16H26Z"
        fill="#EE8132"></path>
    <path
        d="M16 8C17.1072 8 18.1624 8.2266 19.1223 8.6353L20.6184 7.1392C19.2353 6.4151 17.6663 6 16 6C10.4858 6 6 10.4863 6 16H8C8 11.5889 11.5889 8 16 8Z"
        fill="#EE8132"></path>
    <path
        d="M4 16.0586C4 19.3925 5.34 22.405 7.51 24.5841L6.1 26C3.57 23.4594 2 19.9448 2 16.0586C2 8.29623 8.27 2 16 2C23.73 2 30 8.23766 30 16C30 19.8862 28.94 23.4594 26.41 26L25 24.5841C27.17 22.405 28 19.3339 28 16C27.99 9.3523 22.62 4.00837 16 4.00837C9.37 4.00837 4 9.40084 4 16.0586Z"
        fill="#EE8132"></path>
</svg>
